<?xml version="1.0" standalone="no"?>
<!DOCTYPE svg PUBLIC "-//W3C//DTD SVG 20010904//EN"
 "http://www.w3.org/TR/2001/REC-SVG-20010904/DTD/svg10.dtd">
<svg version="1.0" xmlns="http://www.w3.org/2000/svg"
 width="512.000000pt" height="512.000000pt" viewBox="0 0 512.000000 512.000000"
 preserveAspectRatio="xMidYMid meet">
<metadata>
Created by potrace 1.16, written by Peter Selinger 2001-2019
</metadata>
<g transform="translate(0.000000,512.000000) scale(0.100000,-0.100000)"
fill="#000000" stroke="none">
<path d="M1695 5071 c-783 -314 -1362 -941 -1599 -1731 -65 -218 -96 -442 -96
-703 0 -278 25 -464 95 -706 117 -408 331 -773 640 -1090 429 -441 971 -716
1605 -816 141 -23 568 -32 727 -15 805 81 1552 520 1999 1175 61 90 70 139 34
175 -28 28 -74 25 -188 -10 -234 -71 -420 -100 -698 -107 -351 -9 -604 28
-922 132 -727 239 -1314 788 -1586 1483 -256 653 -195 1419 159 2027 43 74 75
140 75 155 0 15 -9 39 -21 54 -31 40 -81 35 -224 -23z m-56 -253 c-212 -420
-301 -975 -234 -1455 119 -844 656 -1583 1443 -1984 594 -302 1272 -382 1956
-232 l29 6 -24 -34 c-41 -58 -249 -268 -349 -351 -366 -308 -827 -511 -1325
-585 -182 -27 -581 -24 -770 5 -717 111 -1344 487 -1747 1048 -311 431 -476
964 -454 1464 14 325 84 624 214 915 198 443 540 835 952 1089 76 48 322 176
337 176 2 0 -11 -28 -28 -62z"/>
<path d="M4101 4141 c-11 -11 -23 -41 -26 -68 -17 -121 -57 -194 -138 -250
-50 -34 -87 -46 -170 -58 -62 -8 -87 -33 -87 -85 0 -52 25 -77 87 -85 122 -17
197 -58 250 -138 34 -51 46 -88 58 -170 8 -62 33 -87 85 -87 52 0 77 25 85 87
12 82 24 119 58 170 53 80 128 121 250 138 62 8 87 33 87 85 0 52 -25 77 -87
85 -122 17 -197 58 -250 138 -34 51 -46 88 -58 170 -8 62 -33 87 -85 87 -26 0
-47 -7 -59 -19z m121 -396 l65 -65 -64 -63 -63 -64 -63 64 -64 63 61 64 c34
34 61 64 62 65 0 0 30 -28 66 -64z"/>
<path d="M2941 3621 c-11 -11 -23 -41 -26 -68 -17 -121 -57 -194 -138 -250
-50 -34 -87 -46 -170 -58 -62 -8 -87 -33 -87 -85 0 -52 25 -77 87 -85 122 -17
197 -58 250 -138 34 -51 46 -88 58 -170 8 -62 33 -87 85 -87 52 0 77 25 85 87
17 122 58 197 138 250 51 34 88 46 170 58 62 8 87 33 87 85 0 52 -25 77 -87
85 -82 12 -119 24 -170 58 -80 53 -121 128 -138 250 -8 62 -33 87 -85 87 -26
0 -47 -7 -59 -19z m121 -396 l65 -65 -64 -63 -63 -64 -63 64 -64 63 61 64 c34
34 61 64 62 65 0 0 30 -28 66 -64z"/>
<path d="M3701 2621 c-11 -11 -23 -41 -26 -68 -17 -121 -57 -194 -138 -250
-50 -34 -87 -46 -170 -58 -62 -8 -87 -33 -87 -85 0 -52 25 -77 87 -85 122 -17
197 -58 250 -138 34 -51 46 -88 58 -170 8 -62 33 -87 85 -87 52 0 77 25 85 87
17 122 58 197 138 250 51 34 88 46 170 58 62 8 87 33 87 85 0 52 -25 77 -87
85 -82 12 -119 24 -170 58 -80 53 -121 128 -138 250 -8 62 -33 87 -85 87 -26
0 -47 -7 -59 -19z m121 -396 l65 -65 -64 -63 -63 -64 -63 64 -64 63 61 64 c34
34 61 64 62 65 0 0 30 -28 66 -64z"/>
</g>
</svg>
