<svg id="Layer_1" data-name="Layer 1" xmlns="http://www.w3.org/2000/svg" viewBox="0 0 512.93 361.37"><defs><style>.cls-1{fill:#232022;}.cls-2{fill:#41647f;}.cls-3{fill:#41779f;}.cls-4{fill:#79b9eb;}.cls-5{fill:#fff;}</style></defs><path class="cls-1" d="M-429.49,75c-33.46-12.48-72.42-1.23-89,32-6.45,12.89-7,25.93-7,40-34,4.58-57.71,38.32-50.11,72a61.84,61.84,0,0,0,8.06,20c1.95,3.07,6.83,7.31,7.08,11,.24,3.4-3.75,7.26-5.42,10a75.57,75.57,0,0,0-8.72,21A78.8,78.8,0,0,0-539.49,367C-508.76,386-462.07,378-427.49,378h171c31.34,0,63.87,2.44,95-1.29a110.15,110.15,0,0,0,48-17.46c40.3-27,58.16-77.75,45.25-124.25-14.8-53.35-77-94.46-132.25-77-6.83-36.76-18.94-67-52-88.31-10.94-7.05-25.57-8.48-35.82-15.55-4.58-3.16-7.4-9.12-11.27-13.1A76.34,76.34,0,0,0-323.49,24.9C-367.32,5.58-415.1,30.88-429.49,75Z" transform="translate(577.03 -18.33)"/><path class="cls-2" d="M-363.49,36v1h5Z" transform="translate(577.03 -18.33)"/><path class="cls-3" d="M-423.49,165c1.21-58.76,48.34-112,109-112-22.27-29-70.66-17.34-89,9-6.13,8.82-6.78,28.85-15.09,34.39-6.91,4.62-18-5-24.95-7a52.32,52.32,0,0,0-39,4.9c-13.46,7.72-24.25,22.86-25,38.67-.34,7.47,4.1,20.63-.05,26.89-3.69,5.55-12.19,4.39-18,5.43-7.35,1.31-14.41,5.22-20,10.12-12.9,11.37-16.79,31.87-10.17,47.56,1.81,4.27,5.73,13.36,11.14,13.75,3.72.26,7.92-3.61,11-5.31s7.74-2.54,10.27-5.14c3.06-3.16,4.07-9.35,6-13.3a87.18,87.18,0,0,1,14.91-22C-480.65,168.05-453.6,162.66-423.49,165Z" transform="translate(577.03 -18.33)"/><path class="cls-2" d="M-350.49,36v1h3l-3-1m-18,1v1h3l-3-1m25,0v1h3l-3-1m-28,1,1,1-1-1m32.66.33.67.33-.67-.33m-35.66.67,1,1-1-1m38.66.33.67.33-.67-.33m-41.66.67,1,1-1-1m44.66.33.67.33-.67-.33m-46.66.67,1,1-1-1m49,0,1,1-1-1m-51,1,1,1-1-1m53,0,1,1-1-1m-55,1,1,1-1-1m57,0,1,1-1-1m-59,1,1,1-1-1m60,0,1,1-1-1m2,1,1,1-1-1m-65,1,1,1-1-1m67,0,1,1-1-1m1,1,1,1-1-1m-71,1,1,1-1-1m72,0,1,1-1-1m-73,1,1,1-1-1m-1,1,1,1-1-1m77,0,1,1-1-1m1,1,1,1-1-1m1,1,1,1-1-1m-10,1v1h6l-6-1m-7,1v1h3l-3-1m-5,1v1h3l-3-1m-63,1,1,1-1-1m59.66.33.67.33-.67-.33m-60.66.67,1,1-1-1m57,0,1,1-1-1m-58,1,1,1-1-1m54.66.33.67.33-.67-.33m-55.66.67,1,1-1-1m52.66.33.67.33-.67-.33m-2.66.67,1,1-1-1m-51,1,1,1-1-1m48.66.33.67.33-.67-.33m-49.66.67,1,1-1-1m47,0,1,1-1-1m-2,1,1,1-1-1m-46,1,1,1-1-1m43.66.33.67.33-.67-.33m-44.66.67,1,1-1-1m43,0,1,1-1-1m-2,1,1,1-1-1m-42,1,1,1-1-1m40,0,1,1-1-1m-2,1,1,1-1-1m-39,1,1,1-1-1m38,0,1,1-1-1m-2,1,1,1-1-1m49,0v1h3Z" transform="translate(577.03 -18.33)"/><path class="cls-3" d="M-320.49,70v1h5Z" transform="translate(577.03 -18.33)"/><path class="cls-4" d="M-315.49,70.46c-39.7,5-73.48,25.22-86,65.58-3.12,10.1-4.07,20.48-4,31,0,5.39,1.89,11.31-2.4,15.6-5.67,5.68-14,.7-20.6-.33a71,71,0,0,0-38,4.18A68,68,0,0,0-500.68,218c-3.15,6.3-3.71,15.52-8.24,20.86-6.82,8-22.11,9.75-30.57,17.31-23.74,21.22-26.17,60-4.83,83.83,25,27.92,68.22,20,101.83,20h184c31.63,0,65.72,3.55,97-1.28a94.1,94.1,0,0,0,35-12.53c60.37-37,57.1-125.15-2-161.13-16.53-10.06-36.94-13.29-56-12-8.25.57-24,8.77-30.79,2.48-4.53-4.21-3-11-3.25-16.57a94.22,94.22,0,0,0-5.65-27C-236.78,96.64-276.16,65.49-315.49,70.46Z" transform="translate(577.03 -18.33)"/><path class="cls-3" d="M-308.49,70v1h5Z" transform="translate(577.03 -18.33)"/><path class="cls-2" d="M-302.83,70.37l.67.33-.67-.33M-409.49,71l1,1-1-1m80.66.33.67.33Z" transform="translate(577.03 -18.33)"/><path class="cls-3" d="M-327.49,71l1,1-1-1m29.66.33.67.33Z" transform="translate(577.03 -18.33)"/><path class="cls-2" d="M-295.83,71.37l.67.33-.67-.33m-79.66.67,1,1-1-1m41,0,1,1Z" transform="translate(577.03 -18.33)"/><path class="cls-3" d="M-333.49,72l1,1-1-1m41.66.33.67.33Z" transform="translate(577.03 -18.33)"/><path class="cls-2" d="M-290.49,72l1,1-1-1M-410.16,73.7l.33.67-.33-.67m33.67-.66,1,1-1-1m38.66.33.67.33Z" transform="translate(577.03 -18.33)"/><path class="cls-3" d="M-336.49,73l1,1-1-1m48,0,1,1Z" transform="translate(577.03 -18.33)"/><path class="cls-2" d="M-287.49,73l1,1-1-1m-91,1,1,1-1-1m37,0,1,1Z" transform="translate(577.03 -18.33)"/><path class="cls-3" d="M-340.49,74l1,1-1-1m56,0,1,1Z" transform="translate(577.03 -18.33)"/><path class="cls-2" d="M-283.49,74l1,1-1-1m-96,1,1,1-1-1m35,0,1,1Z" transform="translate(577.03 -18.33)"/><path class="cls-3" d="M-343.49,75l1,1-1-1m62,0,1,1Z" transform="translate(577.03 -18.33)"/><path class="cls-2" d="M-411.49,76l1,1Z" transform="translate(577.03 -18.33)"/><path class="cls-3" d="M-346.49,76l1,1Z" transform="translate(577.03 -18.33)"/><path class="cls-2" d="M-278.49,76l1,1-1-1m-104,1,1,1-1-1m33,0,1,1Z" transform="translate(577.03 -18.33)"/><path class="cls-3" d="M-276.49,77l1,1Z" transform="translate(577.03 -18.33)"/><path class="cls-2" d="M-383.49,78l1,1-1-1m32,0,1,1Z" transform="translate(577.03 -18.33)"/><path class="cls-3" d="M-274.49,78l1,1Z" transform="translate(577.03 -18.33)"/><path class="cls-2" d="M-273.49,78l1,1-1-1M-412.16,79.7l.33.67-.33-.67m27.67-.66,1,1-1-1m31,0,1,1-1-1m82,0,1,1-1-1m-114,1,1,1Z" transform="translate(577.03 -18.33)"/><path class="cls-3" d="M-355.49,80l1,1Z" transform="translate(577.03 -18.33)"/><path class="cls-2" d="M-269.49,80l1,1-1-1m-117,1,1,1Z" transform="translate(577.03 -18.33)"/><path class="cls-3" d="M-357.49,81l1,1Z" transform="translate(577.03 -18.33)"/><path class="cls-2" d="M-267.49,81l1,1-1-1m-92,1,1,1Z" transform="translate(577.03 -18.33)"/><path class="cls-3" d="M-266.49,82l1,1Z" transform="translate(577.03 -18.33)"/><path class="cls-2" d="M-413.16,83.7l.33.67Z" transform="translate(577.03 -18.33)"/><path class="cls-3" d="M-360.49,83l1,1Z" transform="translate(577.03 -18.33)"/><path class="cls-2" d="M-264.49,83l1,1-1-1m-98,1,1,1-1-1m100,0,1,1-1-1m-129,1,1,1-1-1m27,0,1,1Z" transform="translate(577.03 -18.33)"/><path class="cls-3" d="M-261.49,85l1,1Z" transform="translate(577.03 -18.33)"/><path class="cls-2" d="M-392.49,86l1,1Z" transform="translate(577.03 -18.33)"/><path class="cls-3" d="M-365.49,86l1,1Z" transform="translate(577.03 -18.33)"/><path class="cls-2" d="M-259.49,86l1,1-1-1m-204,1v1h13Z" transform="translate(577.03 -18.33)"/><path class="cls-3" d="M-258.49,87l1,1Z" transform="translate(577.03 -18.33)"/><path class="cls-2" d="M-469.49,88v1h3l-3-1m22.66.33.67.33-.67-.33m78.34-.33,1,1-1-1m-103.34,1.33.67.33-.67-.33m29,0,.67.33-.67-.33m28.34-.33v3h1Z" transform="translate(577.03 -18.33)"/><path class="cls-3" d="M-369.49,89l1,1Z" transform="translate(577.03 -18.33)"/><path class="cls-2" d="M-255.49,89l1,1-1-1m-220,1,1,1-1-1m35.66.33.67.33Z" transform="translate(577.03 -18.33)"/><path class="cls-3" d="M-254.49,90l1,1Z" transform="translate(577.03 -18.33)"/><path class="cls-2" d="M-477.49,91l1,1-1-1m40,0,1,1-1-1m65,0,1,1Z" transform="translate(577.03 -18.33)"/><path class="cls-3" d="M-253.49,91l1,1Z" transform="translate(577.03 -18.33)"/><path class="cls-2" d="M-479.49,92l1,1-1-1m44,0,1,1-1-1m38,0,1,1-1-1m24,0,1,1-1-1m-108,1,1,1-1-1m48,0,1,1-1-1m18,0,1,1-1-1m17,0,1,1Z" transform="translate(577.03 -18.33)"/><path class="cls-3" d="M-374.49,93l1,1Z" transform="translate(577.03 -18.33)"/><path class="cls-2" d="M-250.49,93l1,1-1-1m-233,1,1,1-1-1m52,0,1,1-1-1m32,0,1,1Z" transform="translate(577.03 -18.33)"/><path class="cls-3" d="M-375.49,94l1,1Z" transform="translate(577.03 -18.33)"/><path class="cls-2" d="M-249.49,94l1,1-1-1m-236,1,1,1-1-1m55,0,1,1Z" transform="translate(577.03 -18.33)"/><path class="cls-3" d="M-376.49,95l1,1Z" transform="translate(577.03 -18.33)"/><path class="cls-2" d="M-248.49,95l1,1-1-1m-238,1,1,1-1-1m58,0,1,1Z" transform="translate(577.03 -18.33)"/><path class="cls-3" d="M-377.49,96l1,1Z" transform="translate(577.03 -18.33)"/><path class="cls-2" d="M-247.49,96l1,1-1-1m-240,1,1,1-1-1m61,0,1,1-1-1m6.66.33.67.33-.67-.33m18.34-.33,1,1-1-1m155,0,1,1-1-1m-156,1,1,1-1-1m157,0,1,1-1-1m-245,1,1,1Z" transform="translate(577.03 -18.33)"/><path class="cls-3" d="M-380.49,99l1,1Z" transform="translate(577.03 -18.33)"/><path class="cls-2" d="M-244.49,99l1,1-1-1m-247,1,1,1-1-1m88,0,1,1Z" transform="translate(577.03 -18.33)"/><path class="cls-3" d="M-381.49,100l1,1Z" transform="translate(577.03 -18.33)"/><path class="cls-2" d="M-243.49,100l1,1-1-1m-249,1,1,1-1-1m88,0,1,1-1-1m22,0,1,1-1-1m140,0,1,1-1-1m-141,1,1,1-1-1m-111,1,1,1-1-1m89,0,1,1-1-1m21,0,1,1-1-1m-111,1,1,1-1-1m89,0,1,1-1-1m-90,1,1,1Z" transform="translate(577.03 -18.33)"/><path class="cls-3" d="M-239.49,105l1,1Z" transform="translate(577.03 -18.33)"/><path class="cls-2" d="M-407.49,106l1,1Z" transform="translate(577.03 -18.33)"/><path class="cls-3" d="M-386.49,106l1,1Z" transform="translate(577.03 -18.33)"/><path class="cls-2" d="M-238.49,106l1,1Z" transform="translate(577.03 -18.33)"/><path class="cls-3" d="M-387.49,107l1,1Z" transform="translate(577.03 -18.33)"/><path class="cls-2" d="M-498.49,108l1,1-1-1m90,0,1,1-1-1m20,0,1,1-1-1m-111,1,1,1-1-1m90,0,1,1Z" transform="translate(577.03 -18.33)"/><path class="cls-3" d="M-236.49,109l1,1Z" transform="translate(577.03 -18.33)"/><path class="cls-2" d="M-500.49,110l1,1Z" transform="translate(577.03 -18.33)"/><path class="cls-3" d="M-389.49,110l1,1Z" transform="translate(577.03 -18.33)"/><path class="cls-2" d="M-235.49,110l1,1-1-1m-175,1,1,1-1-1m20,0,1,1-1-1m-111,1,1,1Z" transform="translate(577.03 -18.33)"/><path class="cls-3" d="M-234.49,112l1,1Z" transform="translate(577.03 -18.33)"/><path class="cls-2" d="M-411.49,113l1,1Z" transform="translate(577.03 -18.33)"/><path class="cls-3" d="M-391.49,113l1,1Z" transform="translate(577.03 -18.33)"/><path class="cls-2" d="M-233.49,113l1,1-1-1m-269,1,1,1-1-1m90,1,1,1Z" transform="translate(577.03 -18.33)"/><path class="cls-3" d="M-232.49,115l1,1Z" transform="translate(577.03 -18.33)"/><path class="cls-2" d="M-503.49,116l1,1-1-1m110,0,1,1-1-1m-20,1,1,1-1-1m-91,1,1,1Z" transform="translate(577.03 -18.33)"/><path class="cls-3" d="M-394.49,118l1,1Z" transform="translate(577.03 -18.33)"/><path class="cls-2" d="M-230.49,118l1,1-1-1m-183.67,1.66.33.67-.33-.67m-91,1,.33.67Z" transform="translate(577.03 -18.33)"/><path class="cls-3" d="M-395.49,120l1,1Z" transform="translate(577.03 -18.33)"/><path class="cls-2" d="M-229.49,120l1,1-1-1m-186,2,1,1Z" transform="translate(577.03 -18.33)"/><path class="cls-3" d="M-396.49,122l1,1Z" transform="translate(577.03 -18.33)"/><path class="cls-2" d="M-228.49,122l1,1-1-1m-277.67,1.66.33.67-.33-.67m90,1,.33.67Z" transform="translate(577.03 -18.33)"/><path class="cls-3" d="M-397.49,124l1,1Z" transform="translate(577.03 -18.33)"/><path class="cls-2" d="M-227.49,124l1,1Z" transform="translate(577.03 -18.33)"/><path class="cls-3" d="M-398.49,126l1,1Z" transform="translate(577.03 -18.33)"/><path class="cls-2" d="M-226.49,126l1,1-1-1m-280.67,1.66.33.67-.33-.67m90,0,.33.67Z" transform="translate(577.03 -18.33)"/><path class="cls-3" d="M-226.49,127l1,1Z" transform="translate(577.03 -18.33)"/><path class="cls-2" d="M-399.49,128l1,1Z" transform="translate(577.03 -18.33)"/><path class="cls-3" d="M-225.49,129l1,1Z" transform="translate(577.03 -18.33)"/><path class="cls-2" d="M-418.16,130.7l.33.67Z" transform="translate(577.03 -18.33)"/><path class="cls-3" d="M-400.49,131l1,1Z" transform="translate(577.03 -18.33)"/><path class="cls-2" d="M-224.49,131l1,1Z" transform="translate(577.03 -18.33)"/><path class="cls-3" d="M-224.49,132l1,1Z" transform="translate(577.03 -18.33)"/><path class="cls-2" d="M-508.49,133v10h1l-1-10m89.33.66.33.67-.33-.67m17.67-.66,1,1Z" transform="translate(577.03 -18.33)"/><path class="cls-3" d="M-401.49,134l1,1Z" transform="translate(577.03 -18.33)"/><path class="cls-2" d="M-223.49,134l1,1Z" transform="translate(577.03 -18.33)"/><path class="cls-3" d="M-223.49,135l1,1Z" transform="translate(577.03 -18.33)"/><path class="cls-2" d="M-402.49,136l1,1-1-1m-17.67,1.66.33.67Z" transform="translate(577.03 -18.33)"/><path class="cls-3" d="M-402.49,137l1,1Z" transform="translate(577.03 -18.33)"/><path class="cls-2" d="M-222.49,137l1,1Z" transform="translate(577.03 -18.33)"/><path class="cls-3" d="M-222.49,138l1,1Z" transform="translate(577.03 -18.33)"/><path class="cls-2" d="M-403.49,140l1,1-1-1m-18,1v3h1Z" transform="translate(577.03 -18.33)"/><path class="cls-3" d="M-403.49,141l1,1Z" transform="translate(577.03 -18.33)"/><path class="cls-2" d="M-221.49,141l1,1Z" transform="translate(577.03 -18.33)"/><path class="cls-3" d="M-221.49,142l1,1Z" transform="translate(577.03 -18.33)"/><path class="cls-2" d="M-404.49,144l1,1Z" transform="translate(577.03 -18.33)"/><path class="cls-3" d="M-404.16,145.7l.33.67Z" transform="translate(577.03 -18.33)"/><path class="cls-2" d="M-220.49,145l1,1Z" transform="translate(577.03 -18.33)"/><path class="cls-3" d="M-220.16,146.7l.33.67Z" transform="translate(577.03 -18.33)"/><path class="cls-2" d="M-507.49,147v3h1l-1-3m85,0v4h1l-1-4m17.33,3.66.33.67-.33-.67m186,1,.33.67-.33-.67m-287.33.34v3h1Z" transform="translate(577.03 -18.33)"/><path class="cls-3" d="M-405.16,152.7l.33.67-.33-.67m186,1,.33.67Z" transform="translate(577.03 -18.33)"/><path class="cls-2" d="M-506.16,156.7l.33.67-.33-.67m82.67,1.34v7h1l-1-7m-85,3,1,1-1-1m102,0v6h1l-1-6m-103,1,1,1-1-1m-2.34,1.33.67.33-.67-.33m293.67.33.33.67-.33-.67m-305.33.34v1h5l-5-1m71,0v1h4l-4-1m21,0v1h4l-4-1m-96,1,1,1-1-1m69,0v1h3l-3-1m34,0,1,1-1-1m-106.34,1.33.67.33-.67-.33m69,0,.67.33-.67-.33m-72,1,.67.33-.67-.33m68.34-.33,1,1-1-1m-70,1,1,1-1-1m67,0,1,1-1-1m-69,1,1,1-1-1m66,0,1,1-1-1m-68,1,1,1-1-1m66,0,1,1-1-1m255.33.66.33.67-.33-.67m-323.33.34,1,1-1-1m65.66.33.67.33-.67-.33m-66.66.67,1,1-1-1m64,0,1,1Z" transform="translate(577.03 -18.33)"/><path class="cls-3" d="M-218.49,172l1,1Z" transform="translate(577.03 -18.33)"/><path class="cls-2" d="M-183.49,172v1h7Z" transform="translate(577.03 -18.33)"/><path class="cls-3" d="M-175.83,172.37l.67.33Z" transform="translate(577.03 -18.33)"/><path class="cls-2" d="M-174.49,172v1h6l-6-1m-369,1,1,1-1-1m64,0,1,1-1-1m288.66.33.67.33Z" transform="translate(577.03 -18.33)"/><path class="cls-3" d="M-188.83,173.37l.67.33-.67-.33m25.34-.33,1,1Z" transform="translate(577.03 -18.33)"/><path class="cls-2" d="M-161.83,173.37l.67.33-.67-.33m-382.66.67,1,1-1-1m63,0,1,1Z" transform="translate(577.03 -18.33)"/><path class="cls-3" d="M-405.49,174v5h1l-1-5m188,0,1,1Z" transform="translate(577.03 -18.33)"/><path class="cls-2" d="M-195.83,174.37l.67.33Z" transform="translate(577.03 -18.33)"/><path class="cls-3" d="M-194.49,174l1,1-1-1m37.66.33.67.33Z" transform="translate(577.03 -18.33)"/><path class="cls-2" d="M-155.49,174l1,1-1-1m-328,1,1,1-1-1m267,0,1,1-1-1m16,0,1,1Z" transform="translate(577.03 -18.33)"/><path class="cls-3" d="M-199.49,175l1,1-1-1m46,0,1,1Z" transform="translate(577.03 -18.33)"/><path class="cls-2" d="M-151.83,175.37l.67.33Z" transform="translate(577.03 -18.33)"/><path class="cls-3" d="M-215.49,176l1,1Z" transform="translate(577.03 -18.33)"/><path class="cls-2" d="M-203.49,176l1,1Z" transform="translate(577.03 -18.33)"/><path class="cls-3" d="M-202.49,176l1,1-1-1m53,0,1,1Z" transform="translate(577.03 -18.33)"/><path class="cls-2" d="M-148.49,176l1,1-1-1m-338,1,1,1-1-1m273,0,1,1-1-1m7,0,1,1-1-1m61,0,1,1-1-1m-343,1,1,1Z" transform="translate(577.03 -18.33)"/><path class="cls-3" d="M-210.49,178l1,1-1-1m67,0,1,1Z" transform="translate(577.03 -18.33)"/><path class="cls-2" d="M-142.49,178l1,1-1-1m-347,1,1,1Z" transform="translate(577.03 -18.33)"/><path class="cls-3" d="M-140.49,179l1,1Z" transform="translate(577.03 -18.33)"/><path class="cls-2" d="M-550.49,180l1,1-1-1m144,0,1,1Z" transform="translate(577.03 -18.33)"/><path class="cls-3" d="M-138.49,180l1,1Z" transform="translate(577.03 -18.33)"/><path class="cls-2" d="M-137.49,180l1,1-1-1m-414,1,1,1-1-1m59,0,1,1-1-1m43.66.33.67.33Z" transform="translate(577.03 -18.33)"/><path class="cls-3" d="M-447.49,181v1h3l-3-1m13,0v1h3Z" transform="translate(577.03 -18.33)"/><path class="cls-2" d="M-430.83,181.37l.67.33-.67-.33m295.34-.33,1,1-1-1m-358,1,1,1-1-1m38.66.33.67.33Z" transform="translate(577.03 -18.33)"/><path class="cls-3" d="M-453.49,182l1,1-1-1m26.66.33.67.33Z" transform="translate(577.03 -18.33)"/><path class="cls-2" d="M-425.49,182l1,1Z" transform="translate(577.03 -18.33)"/><path class="cls-3" d="M-407.49,182l1,1Z" transform="translate(577.03 -18.33)"/><path class="cls-2" d="M-133.49,182l1,1-1-1m-419,1,1,1-1-1m58,0,1,1Z" transform="translate(577.03 -18.33)"/><path class="cls-3" d="M-458.49,183l1,1-1-1m36,0,1,1Z" transform="translate(577.03 -18.33)"/><path class="cls-2" d="M-421.49,183l1,1Z" transform="translate(577.03 -18.33)"/><path class="cls-3" d="M-408.49,183l1,1Z" transform="translate(577.03 -18.33)"/><path class="cls-2" d="M-131.49,183l1,1-1-1m-422,1,1,1-1-1m91,0,1,1Z" transform="translate(577.03 -18.33)"/><path class="cls-3" d="M-461.49,184l1,1-1-1m42,0,1,1Z" transform="translate(577.03 -18.33)"/><path class="cls-2" d="M-418.49,184l1,1Z" transform="translate(577.03 -18.33)"/><path class="cls-3" d="M-464.49,185l1,1-1-1m48.66.33.67.33Z" transform="translate(577.03 -18.33)"/><path class="cls-2" d="M-413.83,185.37l.67.33Z" transform="translate(577.03 -18.33)"/><path class="cls-3" d="M-412.49,185l1,1-1-1m284,0,1,1Z" transform="translate(577.03 -18.33)"/><path class="cls-2" d="M-554.49,186l1,1-1-1m87,0,1,1-1-1m341,0,1,1-1-1m-373,1,1,1Z" transform="translate(577.03 -18.33)"/><path class="cls-3" d="M-469.49,187l1,1-1-1m344,0,1,1Z" transform="translate(577.03 -18.33)"/><path class="cls-2" d="M-555.49,188l1,1-1-1m55,0,1,1-1-1m29,0,1,1Z" transform="translate(577.03 -18.33)"/><path class="cls-3" d="M-123.49,188l1,1Z" transform="translate(577.03 -18.33)"/><path class="cls-2" d="M-501.49,189l1,1-1-1m28,0,1,1-1-1m-83,1,1,1-1-1m54,0,1,1Z" transform="translate(577.03 -18.33)"/><path class="cls-3" d="M-474.49,190l1,1Z" transform="translate(577.03 -18.33)"/><path class="cls-2" d="M-120.49,190l1,1-1-1m-383,1,1,1Z" transform="translate(577.03 -18.33)"/><path class="cls-3" d="M-476.49,191l1,1-1-1m357,0,1,1Z" transform="translate(577.03 -18.33)"/><path class="cls-2" d="M-557.16,192.7l.33.67-.33-.67m52.67-.66,1,1-1-1m26,0,1,1Z" transform="translate(577.03 -18.33)"/><path class="cls-3" d="M-479.49,193l1,1Z" transform="translate(577.03 -18.33)"/><path class="cls-2" d="M-116.49,193l1,1-1-1m1,1,1,1-1-1m-391,1,1,1-1-1m24,0,1,1Z" transform="translate(577.03 -18.33)"/><path class="cls-3" d="M-114.49,195l1,1Z" transform="translate(577.03 -18.33)"/><path class="cls-2" d="M-558.16,196.7l.33.67-.33-.67m50.67-.66,1,1Z" transform="translate(577.03 -18.33)"/><path class="cls-3" d="M-483.49,196l1,1-1-1m370,0,1,1Z" transform="translate(577.03 -18.33)"/><path class="cls-2" d="M-508.49,197l1,1Z" transform="translate(577.03 -18.33)"/><path class="cls-3" d="M-484.49,197l1,1-1-1m372,0,1,1-1-1m-373,1,1,1Z" transform="translate(577.03 -18.33)"/><path class="cls-2" d="M-559.49,200v12h1l-1-12m49,0,1,1-1-1m-1,1,1,1Z" transform="translate(577.03 -18.33)"/><path class="cls-3" d="M-107.49,202l1,1Z" transform="translate(577.03 -18.33)"/><path class="cls-2" d="M-512.49,203l1,1Z" transform="translate(577.03 -18.33)"/><path class="cls-3" d="M-106.49,203l1,1Z" transform="translate(577.03 -18.33)"/><path class="cls-2" d="M-513.49,204l1,1Z" transform="translate(577.03 -18.33)"/><path class="cls-3" d="M-105.49,204l1,1-1-1m-387,1,1,1Z" transform="translate(577.03 -18.33)"/><path class="cls-2" d="M-104.49,205l1,1-1-1m-410,1,1,1-1-1m21,0,1,1-1-1m390,0,1,1-1-1m-391,1,1,1-1-1m-21,1,1,1Z" transform="translate(577.03 -18.33)"/><path class="cls-3" d="M-101.49,209l1,1Z" transform="translate(577.03 -18.33)"/><path class="cls-2" d="M-516.49,210l1,1Z" transform="translate(577.03 -18.33)"/><path class="cls-3" d="M-496.49,210l1,1Z" transform="translate(577.03 -18.33)"/><path class="cls-2" d="M-100.49,210l1,1-1-1m-397,1,1,1-1-1m-20,1,1,1Z" transform="translate(577.03 -18.33)"/><path class="cls-3" d="M-498.49,213l1,1-1-1m400,0,1,1Z" transform="translate(577.03 -18.33)"/><path class="cls-2" d="M-518.49,214l1,1-1-1m421,0,1,1-1-1m-461,1v3h1l-1-3m39,1,1,1-1-1m19,0,1,1-1-1m404,0,1,1Z" transform="translate(577.03 -18.33)"/><path class="cls-5" d="M-576.49,217v71h1l8.43-25,7.4-13-7.24-11Z" transform="translate(577.03 -18.33)"/><path class="cls-2" d="M-501.49,218l1,1Z" transform="translate(577.03 -18.33)"/><path class="cls-3" d="M-95.49,218l1,1Z" transform="translate(577.03 -18.33)"/><path class="cls-2" d="M-557.49,219l1,1-1-1m37,0,1,1-1-1m426,0,1,1-1-1m-408,1,1,1-1-1m-18.67,1.66.33.67-.33-.67M-93.49,221l1,1-1-1m-463,1,1,1-1-1m53,0,1,1Z" transform="translate(577.03 -18.33)"/><path class="cls-3" d="M-503.49,223l1,1Z" transform="translate(577.03 -18.33)"/><path class="cls-2" d="M-92.49,223l1,1-1-1m-463,1,1,1-1-1m33,1,1,1-1-1m18,0,1,1-1-1m413,0,1,1-1-1m-463,1,1,1Z" transform="translate(577.03 -18.33)"/><path class="cls-3" d="M-504.49,226l1,1Z" transform="translate(577.03 -18.33)"/><path class="cls-2" d="M-524.49,227l1,1-1-1m434,0,1,1-1-1m-463,1,1,1-1-1m26,0,1,1-1-1m22,0,1,1-1-1m-24.34,1.33.67.33-.67-.33M-89.49,229l1,1-1-1m-443,1,1,1-1-1m-19,1,1,1-1-1m17,0,1,1-1-1m28,0,1,1-1-1m-44,1,1,1-1-1m15,0,1,1Z" transform="translate(577.03 -18.33)"/><path class="cls-3" d="M-506.49,232l1,1-1-1m418,0,1,1Z" transform="translate(577.03 -18.33)"/><path class="cls-2" d="M-537.49,233l1,1-1-1m-2,1,1,1-1-1m452,0,1,1-1-1m-453,1,1,1-1-1m33,0,1,1Z" transform="translate(577.03 -18.33)"/><path class="cls-3" d="M-87.49,235l1,1Z" transform="translate(577.03 -18.33)"/><path class="cls-2" d="M-542.49,236l1,1Z" transform="translate(577.03 -18.33)"/><path class="cls-3" d="M-507.49,236l1,1Z" transform="translate(577.03 -18.33)"/><path class="cls-2" d="M-546.49,237l1,1-1-1m2,0,1,1-1-1m458,0,1,1Z" transform="translate(577.03 -18.33)"/><path class="cls-3" d="M-508.49,238l1,1-1-1m422,0,1,1Z" transform="translate(577.03 -18.33)"/><path class="cls-2" d="M-509.49,239l1,1-1-1m-1,1,1,1-1-1m-2,1,1,1Z" transform="translate(577.03 -18.33)"/><path class="cls-3" d="M-511.49,241l1,1Z" transform="translate(577.03 -18.33)"/><path class="cls-2" d="M-85.49,241l1,1-1-1m-430,1,1,1Z" transform="translate(577.03 -18.33)"/><path class="cls-3" d="M-514.49,242l1,1-1-1m429,0,1,1Z" transform="translate(577.03 -18.33)"/><path class="cls-2" d="M-518.49,243l1,1Z" transform="translate(577.03 -18.33)"/><path class="cls-3" d="M-517.49,243l1,1Z" transform="translate(577.03 -18.33)"/><path class="cls-2" d="M-521.49,244l1,1Z" transform="translate(577.03 -18.33)"/><path class="cls-3" d="M-520.49,244l1,1Z" transform="translate(577.03 -18.33)"/><path class="cls-2" d="M-84.16,244.7l.33.67-.33-.67m-439.33.34,1,1Z" transform="translate(577.03 -18.33)"/><path class="cls-3" d="M-525.49,246l1,1-1-1m441,0,1,1-1-1m-443,1,1,1Z" transform="translate(577.03 -18.33)"/><path class="cls-2" d="M-529.49,248l1,1-1-1m-2,1,1,1-1-1m448.33.66.33.67Z" transform="translate(577.03 -18.33)"/><path class="cls-3" d="M-532.49,250l1,1Z" transform="translate(577.03 -18.33)"/><path class="cls-2" d="M-534.49,251l1,1Z" transform="translate(577.03 -18.33)"/><path class="cls-3" d="M-83.16,251.7l.33.67-.33-.67m-452.33.34,1,1-1-1m-1,1,1,1Z" transform="translate(577.03 -18.33)"/><path class="cls-2" d="M-538.49,254l1,1-1-1m-1,1,1,1Z" transform="translate(577.03 -18.33)"/><path class="cls-3" d="M-540.49,256l1,1Z" transform="translate(577.03 -18.33)"/><path class="cls-2" d="M-82.49,256v3h1Z" transform="translate(577.03 -18.33)"/><path class="cls-3" d="M-541.49,257l1,1-1-1m-1,1,1,1-1-1m-1,1,1,1-1-1m461,0v5h1l-1-5m-462,1,1,1Z" transform="translate(577.03 -18.33)"/><path class="cls-2" d="M-545.49,261l1,1-1-1m-1,1,1,1-1-1m-2,3,1,1-1-1m-2,3,1,1Z" transform="translate(577.03 -18.33)"/><path class="cls-3" d="M-82.49,268v6h1l-1-6m-469,2,1,1Z" transform="translate(577.03 -18.33)"/><path class="cls-2" d="M-552.49,271l1,1-1-1m-1,2,1,1-1-1m471,1v3h1l-1-3m-472,1,1,1Z" transform="translate(577.03 -18.33)"/><path class="cls-3" d="M-554.49,276l1,1-1-1m-1,2,1,1Z" transform="translate(577.03 -18.33)"/><path class="cls-2" d="M-556.49,280l1,1Z" transform="translate(577.03 -18.33)"/><path class="cls-3" d="M-83.16,280.7l.33.67Z" transform="translate(577.03 -18.33)"/><path class="cls-2" d="M-83.16,282.7l.33.67-.33-.67m-474.33.34,1,1Z" transform="translate(577.03 -18.33)"/><path class="cls-3" d="M-557.49,284l1,1-1-1m473,2,1,1Z" transform="translate(577.03 -18.33)"/><path class="cls-2" d="M-558.49,287l1,1-1-1m474,0,1,1Z" transform="translate(577.03 -18.33)"/><path class="cls-3" d="M-558.49,288l1,1-1-1m473,2,1,1Z" transform="translate(577.03 -18.33)"/><path class="cls-2" d="M-85.49,291l1,1-1-1m-474,1v3h1l-1-3m473,2,1,1Z" transform="translate(577.03 -18.33)"/><path class="cls-3" d="M-559.49,295v4h1Z" transform="translate(577.03 -18.33)"/><path class="cls-2" d="M-87.49,297l1,1Z" transform="translate(577.03 -18.33)"/><path class="cls-3" d="M-88.49,299l1,1Z" transform="translate(577.03 -18.33)"/><path class="cls-2" d="M-88.49,300l1,1Z" transform="translate(577.03 -18.33)"/><path class="cls-3" d="M-89.49,302l1,1-1-1m-470,1v4h1l-1-4m469,1,1,1-1-1m-1,2,1,1Z" transform="translate(577.03 -18.33)"/><path class="cls-2" d="M-559.16,307.7l.33.67-.33-.67M-91.49,307l1,1-1-1m-1,2,1,1Z" transform="translate(577.03 -18.33)"/><path class="cls-3" d="M-93.49,310l1,1-1-1m-465,2,1,1-1-1m464,0,1,1Z" transform="translate(577.03 -18.33)"/><path class="cls-2" d="M-558.49,313l1,1-1-1m463,1,1,1Z" transform="translate(577.03 -18.33)"/><path class="cls-3" d="M-557.49,316l1,1Z" transform="translate(577.03 -18.33)"/><path class="cls-2" d="M-96.49,316l1,1-1-1m-461,1,1,1Z" transform="translate(577.03 -18.33)"/><path class="cls-3" d="M-97.49,317l1,1-1-1m-459,2,1,1Z" transform="translate(577.03 -18.33)"/><path class="cls-2" d="M-556.49,320l1,1-1-1m457,0,1,1Z" transform="translate(577.03 -18.33)"/><path class="cls-3" d="M-555.49,322l1,1Z" transform="translate(577.03 -18.33)"/><path class="cls-2" d="M-555.49,323l1,1-1-1m454,0,1,1Z" transform="translate(577.03 -18.33)"/><path class="cls-3" d="M-102.49,324l1,1Z" transform="translate(577.03 -18.33)"/><path class="cls-2" d="M-554.49,325l1,1Z" transform="translate(577.03 -18.33)"/><path class="cls-3" d="M-103.49,325l1,1Z" transform="translate(577.03 -18.33)"/><path class="cls-2" d="M-553.49,327l1,1-1-1m1,2,1,1-1-1m446,0,1,1Z" transform="translate(577.03 -18.33)"/><path class="cls-3" d="M-551.49,330l1,1Z" transform="translate(577.03 -18.33)"/><path class="cls-2" d="M-107.49,330l1,1-1-1m-1,1,1,1-1-1m-442,1,1,1-1-1m441,0,1,1-1-1m-1,1,1,1-1-1m-1,1,1,1-1-1m-437,1,1,1-1-1m436,0,1,1Z" transform="translate(577.03 -18.33)"/><path class="cls-3" d="M-547.49,336l1,1Z" transform="translate(577.03 -18.33)"/><path class="cls-2" d="M-113.49,336l1,1Z" transform="translate(577.03 -18.33)"/><path class="cls-3" d="M-116.49,338l1,1Z" transform="translate(577.03 -18.33)"/><path class="cls-2" d="M-545.49,339l1,1Z" transform="translate(577.03 -18.33)"/><path class="cls-3" d="M-117.49,339l1,1Z" transform="translate(577.03 -18.33)"/><path class="cls-2" d="M-544.49,340l1,1-1-1m426,0,1,1-1-1m-425,1,1,1-1-1m1,1,1,1Z" transform="translate(577.03 -18.33)"/><path class="cls-3" d="M-121.49,342l1,1Z" transform="translate(577.03 -18.33)"/><path class="cls-2" d="M-541.49,343l1,1-1-1m419,0,1,1-1-1m-418,1,1,1Z" transform="translate(577.03 -18.33)"/><path class="cls-3" d="M-124.49,344l1,1Z" transform="translate(577.03 -18.33)"/><path class="cls-2" d="M-539.49,345l1,1-1-1m414,0,1,1Z" transform="translate(577.03 -18.33)"/><path class="cls-3" d="M-127.49,346l1,1-1-1m-409,1,1,1-1-1m407,0,1,1Z" transform="translate(577.03 -18.33)"/><path class="cls-2" d="M-535.49,348l1,1-1-1m405,0,1,1-1-1m-2,1,1,1-1-1m-400,1,1,1-1-1m398,0,1,1Z" transform="translate(577.03 -18.33)"/><path class="cls-3" d="M-530.49,351l1,1-1-1m393,0,1,1Z" transform="translate(577.03 -18.33)"/><path class="cls-2" d="M-136.49,351l1,1-1-1m-393,1,1,1Z" transform="translate(577.03 -18.33)"/><path class="cls-3" d="M-139.49,352l1,1Z" transform="translate(577.03 -18.33)"/><path class="cls-2" d="M-527.49,353l1,1-1-1m386,0,1,1-1-1m-384,1,1,1Z" transform="translate(577.03 -18.33)"/><path class="cls-3" d="M-144.49,354l1,1Z" transform="translate(577.03 -18.33)"/><path class="cls-2" d="M-143.49,354l1,1-1-1m-380,1,1,1Z" transform="translate(577.03 -18.33)"/><path class="cls-3" d="M-522.49,355l1,1-1-1m375,0,1,1Z" transform="translate(577.03 -18.33)"/><path class="cls-2" d="M-146.49,355l1,1-1-1m-374,1,1,1Z" transform="translate(577.03 -18.33)"/><path class="cls-3" d="M-150.49,356l1,1Z" transform="translate(577.03 -18.33)"/><path class="cls-2" d="M-149.49,356l1,1-1-1m-368,1,1,1Z" transform="translate(577.03 -18.33)"/><path class="cls-3" d="M-516.49,357l1,1-1-1m361,0,1,1Z" transform="translate(577.03 -18.33)"/><path class="cls-2" d="M-153.83,357.37l.67.33-.67-.33m-360.66.67,1,1Z" transform="translate(577.03 -18.33)"/><path class="cls-3" d="M-513.49,358l1,1-1-1m353.66.33.67.33Z" transform="translate(577.03 -18.33)"/><path class="cls-2" d="M-158.49,358l1,1-1-1m-350.34,1.33.67.33Z" transform="translate(577.03 -18.33)"/><path class="cls-3" d="M-506.83,359.37l.67.33-.67-.33m340,0,.67.33Z" transform="translate(577.03 -18.33)"/><path class="cls-2" d="M-164.83,359.37l.67.33Z" transform="translate(577.03 -18.33)"/></svg>