<?xml version="1.0" encoding="iso-8859-1"?>
<!-- Generator: Adobe Illustrator 21.0.0, SVG Export Plug-In . SVG Version: 6.00 Build 0)  -->
<svg version="1.1" id="Layer_1" xmlns="http://www.w3.org/2000/svg" xmlns:xlink="http://www.w3.org/1999/xlink" x="0px" y="0px"
	 viewBox="0 0 24 24" enable-background="new 0 0 24 24" xml:space="preserve">
<g>
	<path fill="#303C42" d="M18.5,8c-0.0358276,0-0.071167,0.0080566-0.1069946,0.0087891C17.1914063,5.0045166,14.2758789,3,11,3
		c-4.1593628,0-7.5842896,3.1646118-7.9483643,7.260376C1.2828979,10.8670654,0,12.5280762,0,14.5C0,16.9814453,2.0185547,19,4.5,19
		h14c3.0327148,0,5.5-2.4672852,5.5-5.5S21.5327148,8,18.5,8z"/>
	<path fill="#64B5F6" d="M18.5,18h-14C2.5703125,18,1,16.4296875,1,14.5S2.5703125,11,4.5,11C4.7763672,11,5,10.7763672,5,10.5
		S4.7763672,10,4.5,10c-0.1450195,0-0.2819824,0.0292969-0.4235229,0.0427856C4.5331421,6.6106567,7.4650269,4,11,4
		c2.776062,0,5.2523193,1.6472168,6.3604736,4.137085c-0.7735596,0.1665039-1.5172119,0.4846191-2.1588135,0.9615479
		c-0.2216797,0.1650391-0.2675781,0.4780273-0.1030273,0.699707c0.1640625,0.2202148,0.4765625,0.2666016,0.699707,0.1030273
		C16.5800781,9.3203125,17.5395508,9,18.5,9c2.4814453,0,4.5,2.0185547,4.5,4.5S20.9814453,18,18.5,18z"/>
	<path opacity="0.1" d="M19.8657227,9.2346191C20.258728,9.9025879,20.5,10.6704712,20.5,11.5c0,2.4814453-2.0185547,4.5-4.5,4.5H2
		c-0.2351074,0-0.4643555-0.0250244-0.6866455-0.069458C1.8621826,17.1473389,3.0809937,18,4.5,18h14
		c2.4814453,0,4.5-2.0185547,4.5-4.5C23,11.4977417,21.6768799,9.8168335,19.8657227,9.2346191z"/>
	<path opacity="0.2" fill="#FFFFFF" d="M17.3604736,8.137085c-0.0032959-0.0073853-0.0079956-0.0137939-0.0112915-0.0211792
		c-0.0513306,0.0220947-0.1033936,0.0418091-0.1541138,0.0654297C17.2504883,8.1677246,17.3046875,8.1491089,17.3604736,8.137085z"
		/>
	<path fill="#303C42" d="M19.4760742,10.5893555C19.0986328,10.3266602,18.6289063,10,17.753418,10
		c-0.8759766,0-1.3461914,0.3266602-1.7241211,0.5893555C15.699707,10.8188477,15.4389648,11,14.8764648,11
		c-0.5620117,0-0.8227539-0.1811523-1.1523438-0.4106445C13.3461914,10.3266602,12.8759766,10,12,10
		c-0.2763672,0-0.5,0.2236328-0.5,0.5S11.7236328,11,12,11c0.5624971,0,0.8232422,0.1811523,1.152832,0.4106445
		C13.5307617,11.6733398,14.0009766,12,14.8764648,12c0.8759766,0,1.3461914-0.3266602,1.7236328-0.5893555
		C16.9301758,11.1811523,17.190918,11,17.753418,11c0.5615234,0,0.8217773,0.1811523,1.1513672,0.4101563
		C19.2822266,11.6728516,19.7524414,12,20.6279297,12c0.875,0,1.3447266-0.3271484,1.7216797-0.5898438
		C22.6787109,11.1811523,22.9389648,11,23.5,11c0.2763672,0,0.5-0.2236328,0.5-0.5S23.7763672,10,23.5,10
		c-0.875,0-1.3447266,0.3271484-1.7216797,0.5898438C21.4492188,10.8188477,21.1889648,11,20.6279297,11
		C20.065918,11,19.8056641,10.8188477,19.4760742,10.5893555z"/>
	<path fill="#303C42" d="M23.5,19c-0.875,0-1.3447266,0.3271484-1.7216797,0.5898438
		C21.4492188,19.8188477,21.1889648,20,20.6279297,20c-0.5620117,0-0.8222656-0.1811523-1.1518555-0.4106445
		C19.0986328,19.3266602,18.6289063,19,17.753418,19c-0.8759766,0-1.3461914,0.3266602-1.7241211,0.5893555
		C15.699707,19.8188477,15.4389648,20,14.8764648,20c-0.5620117,0-0.8227539-0.1811523-1.1523438-0.4106445
		C13.3461914,19.3266602,12.8759766,19,12,19c-0.2763672,0-0.5,0.2236328-0.5,0.5S11.7236328,20,12,20
		c0.5624971,0,0.8232422,0.1811523,1.152832,0.4106445C13.5307617,20.6733398,14.0009766,21,14.8764648,21
		c0.8759766,0,1.3461914-0.3266602,1.7236328-0.5893555C16.9301758,20.1811523,17.190918,20,17.753418,20
		c0.5615234,0,0.8217773,0.1811523,1.1513672,0.4101563C19.2822266,20.6728516,19.7524414,21,20.6279297,21
		c0.875,0,1.3447266-0.3271484,1.7216797-0.5898438C22.6787109,20.1811523,22.9389648,20,23.5,20c0.2763672,0,0.5-0.2236328,0.5-0.5
		S23.7763672,19,23.5,19z"/>
	<path fill="#303C42" d="M23.5,16c-0.875,0-1.3447266,0.3271484-1.7216797,0.5898438
		C21.4492188,16.8188477,21.1889648,17,20.6279297,17c-0.2763672,0-0.5,0.2236328-0.5,0.5s0.2236328,0.5,0.5,0.5
		c0.875,0,1.3447266-0.3271484,1.7216797-0.5898438C22.6787109,17.1811523,22.9389648,17,23.5,17c0.2763672,0,0.5-0.2236328,0.5-0.5
		S23.7763672,16,23.5,16z"/>
	<path fill="#303C42" d="M13.152832,17.4106445C13.5307617,17.6733398,14.0009766,18,14.8764648,18
		c0.8759766,0,1.3461914-0.3266602,1.7241211-0.5893555C16.9301758,17.1811523,17.190918,17,17.753418,17
		c0.2763672,0,0.5-0.2236328,0.5-0.5s-0.2236328-0.5-0.5-0.5c-0.8759766,0-1.3461914,0.3266602-1.7236328,0.5893555
		C15.699707,16.8188477,15.4389648,17,14.8764648,17c-0.5620117,0-0.8227539-0.1811523-1.1523438-0.4106445
		C13.3461914,16.3266602,12.8759766,16,12,16c-0.8642578,0-1.3452148,0.3076172-1.7695313,0.5786133
		C9.862793,16.8139648,9.5717773,17,9,17c-0.2763672,0-0.5,0.2236328-0.5,0.5S8.7236328,18,9,18
		c0.8642578,0,1.3452148-0.3076172,1.7695313-0.5786133C11.137207,17.1860352,11.4282227,17,12,17
		C12.5624971,17,12.8232422,17.1811523,13.152832,17.4106445z"/>
	<path fill="#303C42" d="M23.5,13c-0.875,0-1.3447266,0.3271484-1.7216797,0.5898438
		C21.4492188,13.8188477,21.1889648,14,20.6279297,14c-0.5620117,0-0.8222656-0.1811523-1.1518555-0.4106445
		C19.0986328,13.3266602,18.6289063,13,17.753418,13c-0.2763672,0-0.5,0.2236328-0.5,0.5s0.2236328,0.5,0.5,0.5
		c0.5615234,0,0.8217773,0.1811523,1.1513672,0.4101563C19.2822266,14.6728516,19.7524414,15,20.6279297,15
		c0.875,0,1.3447266-0.3271484,1.7216797-0.5898438C22.6787109,14.1811523,22.9389648,14,23.5,14c0.2763672,0,0.5-0.2236328,0.5-0.5
		S23.7763672,13,23.5,13z"/>
	<linearGradient id="SVGID_1_" gradientUnits="userSpaceOnUse" x1="2.4150631" y1="8.3334894" x2="24.4644508" y2="18.6152878">
		<stop  offset="0" style="stop-color:#FFFFFF;stop-opacity:0.2"/>
		<stop  offset="1" style="stop-color:#FFFFFF;stop-opacity:0"/>
	</linearGradient>
	<path fill="url(#SVGID_1_)" d="M23.3970947,11.0088501C23.4332886,11.0071411,23.4609985,11,23.5,11
		c0.2763672,0,0.5-0.2236328,0.5-0.5S23.7763672,10,23.5,10c-0.2702026,0-0.4918213,0.0375977-0.6939087,0.0884399
		C21.7977295,8.8183594,20.2439575,8,18.5,8c-0.0358276,0-0.071167,0.0080566-0.1069946,0.0087891
		C17.1914063,5.0045166,14.2758789,3,11,3c-4.1593628,0-7.5842896,3.1646118-7.9483643,7.260376
		C1.2828979,10.8670654,0,12.5280762,0,14.5C0,16.9814453,2.0185547,19,4.5,19H12h5.753418H18.5
		c1.5192871,0,2.8963623-0.6194458,3.8927612-1.6187744C22.7018433,17.1668701,22.9642334,17,23.5,17
		c0.2763672,0,0.5-0.2236328,0.5-0.5S23.7763672,16,23.5,16c-0.0419922,0-0.0720825,0.0091553-0.1122437,0.0106201
		C23.7764893,15.257019,24,14.4047852,24,13.5C24,12.6029053,23.7796631,11.7578125,23.3970947,11.0088501z M14.8764648,20
		c-0.5620117,0-0.8227539-0.1811523-1.1523438-0.4106445C13.3461914,19.3266602,12.8759766,19,12,19
		c-0.2763672,0-0.5,0.2236328-0.5,0.5S11.7236328,20,12,20c0.5624971,0,0.8232422,0.1811523,1.152832,0.4106445
		C13.5307617,20.6733398,14.0009766,21,14.8764648,21c0.8759766,0,1.3461914-0.3266602,1.7236328-0.5893555
		C16.9301758,20.1811523,17.190918,20,17.753418,20c0.5615234,0,0.8217773,0.1811523,1.1513672,0.4101563
		C19.2822266,20.6728516,19.7524414,21,20.6279297,21c0.875,0,1.3447266-0.3271484,1.7216797-0.5898438
		C22.6787109,20.1811523,22.9389648,20,23.5,20c0.2763672,0,0.5-0.2236328,0.5-0.5S23.7763672,19,23.5,19
		c-0.875,0-1.3447266,0.3271484-1.7216797,0.5898438C21.4492188,19.8188477,21.1889648,20,20.6279297,20
		c-0.5620117,0-0.8222656-0.1811523-1.1518555-0.4106445C19.0986328,19.3266602,18.6289063,19,17.753418,19
		c-0.8759766,0-1.3461914,0.3266602-1.7241211,0.5893555C15.699707,19.8188477,15.4389648,20,14.8764648,20z"/>
</g>
<g>
</g>
<g>
</g>
<g>
</g>
<g>
</g>
<g>
</g>
<g>
</g>
<g>
</g>
<g>
</g>
<g>
</g>
<g>
</g>
<g>
</g>
<g>
</g>
<g>
</g>
<g>
</g>
<g>
</g>
</svg>
