<svg id="Layer_1" data-name="Layer 1" xmlns="http://www.w3.org/2000/svg" viewBox="0 0 512.33 513.03"><defs><style>.cls-1{fill:#1a69b0;}.cls-2{fill:#388aca;}.cls-3{fill:#0101ff;}.cls-4{fill:#bddbff;}</style></defs><path class="cls-1" d="M113,272c4.6,35.65,32.72,66.75,67,76.57,22.19,6.36,47.12,3.43,70,3.43H375c35.49,0,77.16,7,107-16.52,55-43.36,29.22-137.85-42-143.48,0-44.43-25.78-87.07-68-103.8a121.75,121.75,0,0,0-30-7.91c-4.88-.6-11.3,1-15.87-.89S319.88,68.3,318,64c-4.48-10.24-11.19-19.55-18.43-28C273.8,5.92,229.17-6.63,191,2.24,163.74,8.57,140.37,24.5,123.89,47a103.43,103.43,0,0,0-11.61,21c-1.42,3.38-2.24,8.89-5.56,11-7.16,4.49-23.1.77-31.72,2.7-26.71,6-50.51,23.19-63.69,47.33C-14.24,175.8,3.71,236.8,51,261.68,70.91,272.15,91.15,272,113,272Z" transform="translate(0.33 0.55)"/><path class="cls-2" d="M186,3l1,1-1-1m66,2,1,1Z" transform="translate(0.33 0.55)"/><path class="cls-3" d="M255,6l1,1-1-1m-88,4,1,1-1-1m-2,1,1,1Z" transform="translate(0.33 0.55)"/><path class="cls-2" d="M112,256c1.78-41.35,27.33-77.66,67-91a96.67,96.67,0,0,1,28-4.95c3.83-.07,9.94,2.43,13.3-.08,2.68-2,3.35-7,4.56-10a111.28,111.28,0,0,1,10.81-20c15.15-22.47,43.26-44.71,71.33-47-1.15-11.52-9.14-23.23-16.26-32C266.25,20.85,224.13,8.27,187,20a97.63,97.63,0,0,0-55.69,46c-4.3,7.93-5.7,22.4-11.74,28.6-5.73,5.89-23.63.94-31.57,1.49-17.1,1.18-34.53,9.39-47,21-34.4,32-33.41,91.76,4,121.24C65.45,254.44,87.09,256,112,256Z" transform="translate(0.33 0.55)"/><path class="cls-3" d="M153,18l1,1-1-1m131,4,1,1-1-1m16,15,1,1-1-1M124,46l1,1Z" transform="translate(0.33 0.55)"/><path class="cls-2" d="M307,46l1,1-1-1M68,83l1,1-1-1M57,87l1,1Z" transform="translate(0.33 0.55)"/><path class="cls-3" d="M47,92l1,1Z" transform="translate(0.33 0.55)"/><path class="cls-2" d="M315,96v1h4Z" transform="translate(0.33 0.55)"/><path class="cls-4" d="M319,96.43c-29.1,4-55.81,18.15-71.77,43.57a102.46,102.46,0,0,0-10.15,21c-1.68,4.91-2,11-6.21,14.57-5.33,4.42-14.59.51-20.87.43a85.18,85.18,0,0,0-37,7.89c-52.45,24.65-58.55,95.85-17,132.94C179.87,338.14,210.24,336,240,336H373c22.71,0,47.61,2.85,70-1.08,50.23-8.82,71.48-74.51,33-109.75a64.59,64.59,0,0,0-30-15.51c-6.21-1.34-16.33-.06-20.4-5.77-3-4.18-1.43-11-1.64-15.89a96.24,96.24,0,0,0-5.4-28C404.15,120.32,362.14,90.55,319,96.43Z" transform="translate(0.33 0.55)"/><path class="cls-2" d="M337,96v1h4l-4-1m-28,1v1h3l-3-1m35,0v1h3l-3-1m-38.33,1.33.66.34-.66-.34m44,0,.66.34-.66-.34m-48,1,.66.34-.66-.34m52,0,.66.34-.66-.34M298,100l1,1-1-1m59,0,1,1Z" transform="translate(0.33 0.55)"/><path class="cls-3" d="M34,101l1,1Z" transform="translate(0.33 0.55)"/><path class="cls-2" d="M295,101l1,1-1-1m65,0,1,1-1-1m-67.33,1.33.66.34-.66-.34m70,0,.66.34-.66-.34M290,103l1,1-1-1m75,0,1,1-1-1m-77,1,1,1-1-1m79,0,1,1-1-1m-81,1,1,1-1-1m83,0,1,1-1-1m-85,1,1,1-1-1m87,0,1,1-1-1m-89,1,1,1-1-1m91,0,1,1-1-1m-93,1,1,1-1-1m95,0,1,1-1-1m-97,1,1,1-1-1m99,0,1,1-1-1m-100,1,1,1-1-1m101,0,1,1-1-1m27,0,1,1-1-1m-130,1,1,1-1-1m105,0,1,1-1-1m-106,1,1,1-1-1M22,113l1,1-1-1m250,0,1,1-1-1m111,0,1,1Z" transform="translate(0.33 0.55)"/><path class="cls-3" d="M21,114l1,1Z" transform="translate(0.33 0.55)"/><path class="cls-2" d="M271,114l1,1-1-1m113,0,1,1-1-1m25,0,1,1-1-1m-23,1,1,1-1-1m-118,1,1,1-1-1m119,0,1,1-1-1m-120,1,1,1-1-1m121,0,1,1-1-1m-122,1,1,1-1-1m126,2,1,1-1-1m1,1,1,1-1-1m-132,1,1,1-1-1m133,0,1,1-1-1m-134,1,1,1-1-1m135,0,1,1-1-1m-136,1,1,1-1-1m137,0,1,1-1-1m-138,1,1,1-1-1m139,0,1,1-1-1m-140,1,1,1-1-1m141,0,1,1-1-1m1,1,1,1-1-1m-145,3,1,1-1-1m-1,1,1,1-1-1m149,0,1,1-1-1m-150,1,1,1-1-1m151,0,1,1-1-1m1,1,1,1-1-1m-154,2,1,1-1-1m155,0,1,1-1-1m-156,1,1,1-1-1m157,0,1,1-1-1M7,137l1,1-1-1m240,2,1,1-1-1m161,0,1,1-1-1m19,0,1,1-1-1m-181,2,1,1-1-1m163,0,1,1-1-1m-164,1,1,1-1-1m165,0,1,1-1-1m-166,2,1,1-1-1m167,0,1,1-1-1m-168,2,1,1-1-1m169,0,1,1-1-1M3,148l1,1-1-1m239,0,1,1-1-1m171,0,1,1-1-1m-172,2,1,1-1-1m173,0,1,1-1-1m-174,2,1,1-1-1m175,0,1,1-1-1m-176,2,1,1-1-1m177,0,1,1-1-1m-177.67,2.67.34.66-.34-.66m179,0,.34.66-.34-.66M237,159l1,1-1-1m181,0,1,1-1-1m-182,3,1,1-1-1m183,0,1,1-1-1m-183.67,3.67.34.66-.34-.66m185,0,.34.66-.34-.66m-186,4,.34.66-.34-.66m187,0,.34.66-.34-.66M233,173l1,1-1-1m189,0v3h1l-1-3m-190,1,1,1-1-1m-36,2v1h4l-4-1m20,0v1h4l-4-1m14,0,1,1-1-1m-38.33,1.33.66.34-.66-.34M223,177v1h3l-3-1m4.67.33.66.34-.66-.34m-40,1,.66.34-.66-.34m-4,1,.66.34-.66-.34M423,179v5h1l-1-5m-242.33,1.33.66.34-.66-.34M178,181l1,1-1-1m-2.33,1.33.66.34-.66-.34M173,183l1,1-1-1m-2,1,1,1-1-1m-2,1,1,1-1-1m-1,1,1,1-1-1m-2,1,1,1-1-1m-2,1,1,1-1-1m-1,1,1,1Z" transform="translate(0.33 0.55)"/><path class="cls-2" d="M161,190l1,1-1-1m-1,1,1,1-1-1m-1,1,1,1-1-1m-2,1,1,1-1-1m-1,1,1,1-1-1m-1,1,1,1-1-1m-1,1,1,1-1-1m-1,1,1,1-1-1m-1,1,1,1-1-1m-1,1,1,1-1-1m-1,1,1,1-1-1m-1,1,1,1-1-1m-1,1,1,1-1-1m276.33.67.34.66-.34-.66M3,203l1,1-1-1m144,0,1,1-1-1m-1,1,1,1-1-1m279,0,1,1-1-1m-280,1,1,1-1-1m281,0,1,1-1-1m1,1,1,1-1-1m-283,1,1,1-1-1m285.67.33.66.34-.66-.34M143,208l1,1-1-1m296,0v1h4l-4-1m-297,1,1,1-1-1m303.67.33.66.34-.66-.34m4,1,.66.34-.66-.34M141,211l1,1-1-1m312,0,1,1-1-1m-313,1,1,1-1-1m315.67.33.66.34-.66-.34M458,213l1,1-1-1M7,214l1,1-1-1m132,0,1,1-1-1m321,0,1,1-1-1m2,1,1,1-1-1m-324,1,1,1-1-1m326,0,1,1-1-1m-327,1,1,1-1-1m328,0,1,1-1-1m2,1,1,1-1-1m-331,1,1,1-1-1m332,0,1,1-1-1m-333,2,1,1-1-1m336,0,1,1-1-1m1,1,1,1-1-1m-337.67,1.67.34.66-.34-.66M133,226l1,1-1-1m344,0,1,1Z" transform="translate(0.33 0.55)"/><path class="cls-3" d="M498,226l1,1Z" transform="translate(0.33 0.55)"/><path class="cls-2" d="M132.33,228.67l.34.66-.34-.66m-1,3,.34.66-.34-.66M481,231l1,1-1-1m1,1,1,1-1-1m1,1,1,1-1-1m-352.67,2.67.34.66-.34-.66M484,235l1,1-1-1m1,1,1,1Z" transform="translate(0.33 0.55)"/><path class="cls-3" d="M21,237l1,1Z" transform="translate(0.33 0.55)"/><path class="cls-2" d="M486,238l1,1-1-1m-356.67,1.67.34.66-.34-.66M487,239l1,1-1-1m1,2,1,1-1-1m18,0,1,1-1-1m-17,2,1,1-1-1m-361,1v4h1l-1-4m362,1,1,1-1-1m1.33,2.67.34.66Z" transform="translate(0.33 0.55)"/><path class="cls-3" d="M34,250l1,1Z" transform="translate(0.33 0.55)"/><path class="cls-2" d="M492,250l1,1-1-1M38,253l1,1-1-1m455.33.67.34.66-.34-.66m1,4,.34.66Z" transform="translate(0.33 0.55)"/><path class="cls-3" d="M47,259l1,1Z" transform="translate(0.33 0.55)"/><path class="cls-2" d="M511,259l1,1-1-1m-16,2v4h1l-1-4M57,264l1,1-1-1m71,0v4h1l-1-4m-52,6,1,1-1-1m53.33,1.67.34.66-.34-.66m1,4,.34.66-.34-.66m1,4,.34.66-.34-.66M495,279v4h1l-1-4m-362.67,3.67.34.66-.34-.66M133,285l1,1-1-1m361.33.67.34.66Z" transform="translate(0.33 0.55)"/><path class="cls-3" d="M116,286l1,1Z" transform="translate(0.33 0.55)"/><path class="cls-2" d="M134.33,287.67l.34.66-.34-.66m359,2,.34.66-.34-.66M135,290l1,1-1-1m1,2,1,1-1-1m356,1,1,1-1-1m-355,1,1,1-1-1m1,1,1,1-1-1m353.33.67.34.66-.34-.66M139,297l1,1-1-1m351,1,1,1-1-1m-350,1,1,1-1-1m1,1,1,1-1-1m348,0,1,1-1-1m-347,2,1,1-1-1m346,0,1,1-1-1m18,0,1,1-1-1m-363,1,1,1-1-1m1,1,1,1-1-1m343,0,1,1-1-1m-1,1,1,1-1-1m-341,1,1,1-1-1m1,1,1,1-1-1m339,0,1,1-1-1m-338,1,1,1-1-1m337,0,1,1-1-1m-336,1,1,1-1-1m1,1,1,1-1-1m1,1,1,1-1-1m332,0,1,1Z" transform="translate(0.33 0.55)"/><path class="cls-1" d="M79,312.65C71.16,315,65.91,322.46,61.7,329c-7.17,11.15-11.6,24.66-9.37,38,3.16,19,24,29.2,41.67,24,27.78-8.25,25.29-41,12.93-61C101,320.48,91.77,308.8,79,312.65Z" transform="translate(0.33 0.55)"/><path class="cls-2" d="M151,312l1,1-1-1m330,0,1,1Z" transform="translate(0.33 0.55)"/><path class="cls-3" d="M130,313l1,1Z" transform="translate(0.33 0.55)"/><path class="cls-2" d="M152,313l1,1-1-1m1,1,1,1-1-1m1,1,1,1-1-1m1,1,1,1-1-1m1,1,1,1-1-1m321,0,1,1-1-1m-318,2,1,1-1-1m1,1,1,1-1-1m1,1,1,1-1-1m311,0,1,1Z" transform="translate(0.33 0.55)"/><path class="cls-3" d="M66,322l1,1Z" transform="translate(0.33 0.55)"/><path class="cls-2" d="M163,322l1,1-1-1m308,0,1,1-1-1m-307,1,1,1-1-1m2,1,1,1-1-1m302,0,1,1-1-1m-300,1,1,1-1-1m299,0,1,1Z" transform="translate(0.33 0.55)"/><path class="cls-3" d="M104,326l1,1Z" transform="translate(0.33 0.55)"/><path class="cls-2" d="M169,326l1,1-1-1m296,0,1,1-1-1m-294,1,1,1-1-1m293,0,1,1-1-1M83.08,329.35c-3.89,1.07-7,7.41-8.77,10.65C67.24,352.8,64.77,383,89,375.35c16.08-5,10.94-23.57,5.22-34.35-1.76-3.3-6.32-13-11.14-11.65M173,328l1,1-1-1m289,0,1,1-1-1m-286,1,1,1-1-1m284,0,1,1-1-1m-282,1,1,1-1-1m280,0,1,1-1-1m-277.33,1.33.66.34-.66-.34m275,0,.66.34-.66-.34m-272,1,.66.34-.66-.34M453,332l1,1-1-1m-265.33,1.33.66.34-.66-.34m262,0,.66.34-.66-.34m-258,1,.66.34-.66-.34m254,0,.66.34-.66-.34M196,335v1h4l-4-1m243,0v1h4Z" transform="translate(0.33 0.55)"/><path class="cls-3" d="M477,338l1,1-1-1m-318,1,1,1Z" transform="translate(0.33 0.55)"/><path class="cls-2" d="M462,346l1,1-1-1m-18,5,1,1Z" transform="translate(0.33 0.55)"/><path class="cls-1" d="M155,368.65c-30.47,9.55-22.51,64.82,13,54.56,29.12-8.42,14-63-13-54.56m100,0c-7.84,2.36-13.1,9.81-17.3,16.35-7.17,11.15-11.6,24.66-9.37,38,3.16,19,24,29.2,41.67,24,27.78-8.25,25.29-41,12.93-61-5.87-9.46-15.26-21.17-27.93-17.35m84,0c-30.47,9.55-22.51,64.82,13,54.56,29.12-8.42,14-63-13-54.56m96,0c-30.47,9.55-22.51,64.82,13,54.56C477.12,414.79,462,360.19,435,368.65Z" transform="translate(0.33 0.55)"/><path class="cls-2" d="M271,372l1,1Z" transform="translate(0.33 0.55)"/><path class="cls-3" d="M56,377l1,1-1-1m55,0,1,1-1-1m131,1,1,1-1-1M59,381l1,1-1-1m49,0,1,1-1-1m131,1,1,1-1-1M62,384l1,1-1-1m43,0,1,1Z" transform="translate(0.33 0.55)"/><path class="cls-2" d="M259.08,385.35c-3.89,1.07-7,7.41-8.77,10.65-7.07,12.8-9.54,42.95,14.69,35.35,16.08-5,10.94-23.57,5.22-34.35-1.76-3.3-6.32-13-11.14-11.65m-100,1c-9.45,2.64-9.77,24.37,2.91,21.2,10.31-2.58,4.94-23.4-2.91-21.2m184,0c-9.45,2.64-9.77,24.37,2.9,21.2,10.32-2.58,4.95-23.4-2.9-21.2m96,0c-9.45,2.64-9.77,24.37,2.9,21.2C452.3,405,446.93,384.15,439.08,386.35Z" transform="translate(0.33 0.55)"/><path class="cls-3" d="M101,387l1,1Z" transform="translate(0.33 0.55)"/><path class="cls-1" d="M107,416.65c-30.47,9.55-22.51,64.82,13,54.56,29.12-8.42,14-63-13-54.56m280,0c-7.84,2.36-13.1,9.81-17.3,16.35-7.17,11.15-11.6,24.66-9.37,38,3.16,19,24,29.2,41.67,24,27.78-8.25,25.29-41,12.93-61C409,424.48,399.77,412.8,387,416.65Z" transform="translate(0.33 0.55)"/><path class="cls-3" d="M374,426l1,1-1-1m38,4,1,1Z" transform="translate(0.33 0.55)"/><path class="cls-1" d="M195,432.65c-7.84,2.36-13.1,9.81-17.3,16.35-7.17,11.15-11.6,24.66-9.37,38,3.16,19,24,29.2,41.67,24,27.78-8.25,25.29-41,12.93-61C217,440.48,207.76,428.8,195,432.65Z" transform="translate(0.33 0.55)"/><path class="cls-2" d="M391.08,433.35c-3.89,1.07-7,7.41-8.77,10.65-7.07,12.8-9.54,42.95,14.69,35.35,16.08-5,10.94-23.57,5.22-34.35-1.76-3.3-6.32-13-11.14-11.65m-280,1c-9.45,2.64-9.77,24.37,2.91,21.2C124.3,453,118.93,432.15,111.08,434.35Z" transform="translate(0.33 0.55)"/><path class="cls-3" d="M232,433l1,1-1-1m3,4,1,1-1-1m49,0,1,1-1-1m-46,3,1,1-1-1m43,0,1,1-1-1m-99,2,1,1-1-1m95,1,1,1-1-1m-57,3,1,1Z" transform="translate(0.33 0.55)"/><path class="cls-2" d="M199.08,449.35c-3.89,1.07-7,7.41-8.77,10.65-7.07,12.8-9.54,42.95,14.69,35.35,16.08-5,10.94-23.57,5.22-34.35C208.46,457.7,203.9,448,199.08,449.35Z" transform="translate(0.33 0.55)"/><path class="cls-1" d="M315,456.65c-30.47,9.55-22.51,64.82,13,54.56C357.12,502.79,342,448.19,315,456.65Z" transform="translate(0.33 0.55)"/><path class="cls-2" d="M319.08,474.35c-9.45,2.64-9.77,24.37,2.9,21.2C332.3,493,326.93,472.15,319.08,474.35Z" transform="translate(0.33 0.55)"/><path class="cls-3" d="M364,481l1,1-1-1m55,0,1,1-1-1m-52,4,1,1-1-1m49,0,1,1-1-1m-46,3,1,1-1-1m43,0,1,1-1-1m-4,3,1,1-1-1m-237,6,1,1-1-1m55,0,1,1-1-1m-52,4,1,1-1-1m49,0,1,1-1-1m-46,3,1,1-1-1m43,0,1,1-1-1m-4,3,1,1Z" transform="translate(0.33 0.55)"/></svg>