<?xml version="1.0" standalone="no"?>
<!DOCTYPE svg PUBLIC "-//W3C//DTD SVG 20010904//EN"
 "http://www.w3.org/TR/2001/REC-SVG-20010904/DTD/svg10.dtd">
<svg version="1.0" xmlns="http://www.w3.org/2000/svg"
 width="512.000000pt" height="512.000000pt" viewBox="0 0 512.000000 512.000000"
 preserveAspectRatio="xMidYMid meet">
<metadata>
Created by potrace 1.16, written by Peter Selinger 2001-2019
</metadata>
<g transform="translate(0.000000,512.000000) scale(0.100000,-0.100000)"
fill="#000000" stroke="none">
<path d="M2034 1179 c-12 -6 -27 -21 -33 -33 -14 -27 -91 -358 -91 -392 0 -39
42 -74 88 -74 71 0 79 14 128 225 46 195 48 230 15 259 -23 21 -80 29 -107 15z"/>
<path d="M2553 1180 c-37 -15 -50 -49 -94 -238 -40 -177 -41 -185 -26 -218 26
-53 114 -62 148 -14 17 23 99 354 99 399 0 50 -76 93 -127 71z"/>
<path d="M3063 1180 c-36 -15 -49 -47 -92 -238 -38 -169 -40 -184 -27 -216 15
-36 41 -49 90 -48 56 2 71 32 115 224 23 97 41 188 41 202 0 54 -74 99 -127
76z"/>
<path d="M1862 497 c-16 -17 -33 -71 -62 -195 -22 -95 -40 -188 -40 -208 0
-74 88 -111 144 -61 22 18 32 50 66 195 47 204 49 234 15 267 -33 34 -93 34
-123 2z"/>
<path d="M2376 498 c-21 -19 -32 -52 -66 -200 -22 -97 -40 -189 -40 -205 1
-71 89 -108 145 -60 23 19 33 48 70 210 24 103 41 197 38 210 -10 40 -43 67
-84 67 -25 0 -46 -8 -63 -22z"/>
<path d="M2898 509 c-10 -5 -22 -18 -27 -28 -12 -22 -91 -362 -91 -391 0 -30
53 -80 84 -80 39 0 74 20 85 49 12 29 91 364 91 385 0 8 -12 28 -26 45 -20 24
-34 31 -62 31 -21 0 -45 -5 -54 -11z"/>
</g>
</svg>
