<?xml version="1.0" standalone="no"?>
<!DOCTYPE svg PUBLIC "-//W3C//DTD SVG 20010904//EN"
 "http://www.w3.org/TR/2001/REC-SVG-20010904/DTD/svg10.dtd">
<svg version="1.0" xmlns="http://www.w3.org/2000/svg"
 width="512.000000pt" height="512.000000pt" viewBox="0 0 512.000000 512.000000"
 preserveAspectRatio="xMidYMid meet">
<metadata>
Created by potrace 1.16, written by Peter Selinger 2001-2019
</metadata>
<g transform="translate(0.000000,512.000000) scale(0.100000,-0.100000)"
fill="#000000" stroke="none">
<path d="M420 3428 c-30 -18 -83 -60 -118 -93 -34 -34 -65 -60 -67 -58 -3 2
-3 0 0 -3 2 -4 -4 -19 -14 -33 -75 -107 -113 -243 -109 -393 2 -60 6 -108 11
-108 4 0 7 -8 7 -17 1 -25 41 -122 76 -180 16 -26 27 -52 25 -58 -1 -5 0 -8 3
-5 3 3 36 -24 74 -60 85 -82 204 -144 315 -165 45 -9 137 -15 213 -15 l134 0
1 -27 c2 -46 6 -67 18 -96 6 -15 10 -31 9 -35 -1 -8 3 -21 40 -112 14 -36 35
-81 47 -100 11 -19 26 -47 33 -61 32 -61 263 -275 321 -297 9 -3 18 -8 21 -11
10 -12 176 -75 235 -90 50 -12 176 -15 752 -18 l692 -4 5 23 c5 22 36 266 36
281 0 4 -206 7 -457 7 -495 1 -622 8 -741 41 -159 44 -343 156 -448 272 -101
113 -186 267 -226 412 -18 67 -22 106 -22 240 0 184 16 262 84 403 21 45 36
82 32 82 -4 0 -44 -29 -88 -64 -137 -110 -240 -257 -299 -431 l-32 -91 -62 12
c-124 26 -261 111 -351 219 -50 61 -104 169 -125 250 -28 109 -21 261 19 373
8 23 14 42 13 42 -1 0 -27 -15 -57 -32z"/>
<path d="M4780 1799 c-152 -78 -290 -98 -660 -99 l-225 0 -78 -155 -77 -155
193 -2 c212 -3 319 10 441 56 36 14 66 22 66 18 0 -4 4 -2 8 4 4 6 27 22 52
34 56 28 151 93 169 114 7 9 16 15 20 13 3 -1 22 14 42 35 21 21 35 38 33 38
-2 0 19 28 46 62 28 34 50 66 50 70 0 4 -1 7 -2 6 -2 0 -37 -18 -78 -39z"/>
</g>
</svg>
