<?xml version="1.0" standalone="no"?>
<!DOCTYPE svg PUBLIC "-//W3C//DTD SVG 20010904//EN"
 "http://www.w3.org/TR/2001/REC-SVG-20010904/DTD/svg10.dtd">
<svg version="1.0" xmlns="http://www.w3.org/2000/svg"
 width="512.000000pt" height="512.000000pt" viewBox="0 0 512.000000 512.000000"
 preserveAspectRatio="xMidYMid meet">
<metadata>
Created by potrace 1.16, written by Peter Selinger 2001-2019
</metadata>
<g transform="translate(0.000000,512.000000) scale(0.100000,-0.100000)"
fill="#000000" stroke="none">
<path d="M3018 5091 l-33 -29 -4 -128 c-4 -152 6 -197 52 -224 53 -33 111 -23
149 24 15 18 18 44 18 174 l0 154 -29 29 c-42 41 -107 41 -153 0z"/>
<path d="M1662 4530 c-32 -31 -42 -64 -34 -107 6 -30 161 -197 204 -219 89
-46 189 36 158 130 -7 21 -47 69 -110 130 -95 92 -101 96 -144 96 -36 0 -50
-6 -74 -30z"/>
<path d="M4317 4473 c-111 -105 -127 -127 -127 -176 0 -55 52 -107 107 -107
49 0 71 16 176 127 80 85 87 95 87 134 0 33 -6 47 -34 75 -28 28 -42 34 -75
34 -39 0 -49 -7 -134 -87z"/>
<path d="M2885 4465 c-188 -37 -394 -120 -520 -209 -54 -39 -119 -103 -182
-180 -18 -22 -30 -26 -71 -26 -27 0 -89 -7 -138 -15 -609 -104 -1117 -562
-1275 -1149 -16 -61 -33 -121 -37 -134 -5 -17 -29 -32 -86 -57 -114 -49 -178
-91 -266 -173 -138 -127 -222 -262 -277 -439 -25 -82 -27 -101 -27 -268 0
-167 2 -186 27 -268 86 -280 269 -491 529 -612 151 -69 201 -77 523 -82 197
-3 301 -1 327 6 91 28 107 146 25 193 -16 9 -108 15 -322 19 -287 5 -303 6
-377 31 -248 83 -435 280 -499 527 -26 99 -27 261 -4 357 66 264 270 474 527
544 59 16 96 51 104 99 31 182 64 292 129 426 350 723 1240 998 1936 598 238
-137 426 -339 554 -594 46 -91 82 -129 122 -129 13 0 60 9 104 21 441 114 888
-92 1097 -506 120 -239 125 -562 13 -810 -118 -260 -333 -445 -618 -531 -85
-26 -99 -27 -403 -33 -251 -5 -319 -9 -337 -21 -67 -44 -60 -150 12 -185 46
-21 528 -22 662 0 500 81 901 486 973 984 19 128 8 353 -24 466 -38 140 -75
228 -129 312 -15 24 -27 45 -27 48 0 21 -205 239 -274 291 -38 28 -107 72
-153 96 -21 10 -23 19 -23 87 0 110 -35 296 -75 408 -24 65 -99 216 -138 279
-107 172 -281 343 -452 446 -136 81 -280 139 -435 173 -102 23 -399 29 -495
10z m482 -234 c411 -104 733 -409 847 -805 26 -89 54 -251 45 -261 -3 -2 -37
2 -75 11 -109 24 -273 28 -393 10 -58 -9 -108 -16 -112 -16 -4 0 -26 34 -48
75 -100 182 -300 401 -476 521 -186 127 -356 201 -570 249 -66 15 -121 28
-123 30 -7 7 122 88 182 115 67 31 203 74 281 89 85 17 348 6 442 -18z"/>
<path d="M4734 3182 c-47 -38 -57 -96 -24 -149 27 -46 72 -56 224 -52 l128 4
29 33 c41 46 41 111 0 153 l-29 29 -154 0 c-130 0 -156 -3 -174 -18z"/>
<path d="M2601 2535 c-16 -14 -32 -34 -35 -43 -3 -9 -24 -183 -46 -387 -22
-203 -43 -387 -46 -407 l-6 -37 -149 74 c-168 84 -208 92 -256 51 -26 -22 -32
-47 -121 -482 -51 -253 -127 -623 -168 -824 -48 -233 -73 -377 -69 -397 12
-65 104 -105 166 -72 16 8 489 708 597 883 l22 36 73 -36 c39 -20 74 -40 77
-44 9 -14 212 -110 232 -110 32 0 86 27 102 52 8 12 17 37 20 54 3 17 98 331
211 697 113 367 205 683 205 703 0 68 -21 79 -390 202 -184 62 -347 112 -362
112 -14 0 -40 -11 -57 -25z m562 -365 c6 -5 -336 -1143 -348 -1158 -2 -2 -75
33 -164 77 -163 82 -207 94 -252 71 -11 -6 -98 -129 -194 -273 -96 -144 -175
-260 -175 -257 0 14 180 904 184 907 2 2 72 -30 156 -72 175 -87 210 -93 261
-47 l32 28 48 425 c27 233 48 427 49 431 0 7 390 -120 403 -132z"/>
</g>
</svg>
