<?xml version="1.0" encoding="UTF-8"?>
<!DOCTYPE svg PUBLIC "-//W3C//DTD SVG 1.1//EN" "http://www.w3.org/Graphics/SVG/1.1/DTD/svg11.dtd">
<!-- Creator: CorelDRAW -->
<svg xmlns="http://www.w3.org/2000/svg" xml:space="preserve" width="1.70666in" height="1.70666in" version="1.1" style="shape-rendering:geometricPrecision; text-rendering:geometricPrecision; image-rendering:optimizeQuality; fill-rule:evenodd; clip-rule:evenodd"
viewBox="0 0 1706.66 1706.66"
 xmlns:xlink="http://www.w3.org/1999/xlink"
 xmlns:xodm="http://www.corel.com/coreldraw/odm/2003">
 <defs>
  <style type="text/css">
   <![CDATA[
    .fil2 {fill:url(#id0)}
    .fil3 {fill:url(#id1)}
    .fil0 {fill:url(#id2);fill-rule:nonzero}
    .fil1 {fill:url(#id3);fill-rule:nonzero}
   ]]>
  </style>
  <linearGradient id="id0" gradientUnits="userSpaceOnUse" x1="22.6" y1="647" x2="1729.21" y2="647">
   <stop offset="0" style="stop-opacity:1; stop-color:#E87EA2"/>
   <stop offset="1" style="stop-opacity:1; stop-color:#FCD3A5"/>
  </linearGradient>
  <linearGradient id="id1" gradientUnits="userSpaceOnUse" x1="598.26" y1="1117.18" x2="1086.08" y2="1117.18">
   <stop offset="0" style="stop-opacity:1; stop-color:#C73C5B"/>
   <stop offset="1" style="stop-opacity:1; stop-color:#A32F60"/>
  </linearGradient>
  <linearGradient id="id2" gradientUnits="userSpaceOnUse" xlink:href="#id1" x1="1058.03" y1="1337.96" x2="1264.46" y2="1337.96">
  </linearGradient>
  <linearGradient id="id3" gradientUnits="userSpaceOnUse" xlink:href="#id1" x1="278.86" y1="1337.96" x2="485.3" y2="1337.96">
  </linearGradient>
 </defs>
 <g id="Layer_x0020_1">
  <metadata id="CorelCorpID_0Corel-Layer"/>
  <path class="fil0" d="M1177.77 1193.7c232.03,286.48 -70.23,375.84 -114.89,224.32 -14.63,-49.65 1.33,-125.45 82.89,-225.65l-0.04 -0.05c8.46,-10.39 24.63,-9.56 32.05,1.37z"/>
  <path class="fil1" d="M398.6 1193.7c232.03,286.48 -70.23,375.84 -114.89,224.32 -14.63,-49.65 1.33,-125.45 82.89,-225.65l-0.04 -0.05c8.46,-10.39 24.63,-9.56 32.05,1.37z"/>
  <path class="fil2" d="M1427.3 1137.17l-418.72 0c-12.96,0 -19.53,-9.69 -19.73,-19.52l-348.26 0c-0.2,9.84 -6.78,19.54 -19.74,19.54l-296.35 0c-166.48,0 -301.92,-135.44 -301.92,-301.93 0,-127.15 78.84,-239.62 197.33,-283.28 43.35,-158.46 204.01,-251.43 362.04,-213.39 107.56,-249.6 466.03,-239.55 560.44,14.24 169.15,-69.91 363.89,28.05 408.02,206.72 108.97,48.61 178.8,155.7 178.8,275.73 0.02,166.46 -135.42,301.9 -301.9,301.9z"/>
  <path class="fil3" d="M683.43 1535.56c-12.95,0 -22.61,-12.23 -19.37,-24.94l92.76 -363.84 -138.56 -0c-13.12,0 -22.71,-12.5 -19.33,-25.18l109.31 -407.99c2.35,-8.75 10.26,-14.82 19.31,-14.82l273.31 0c13.02,0 22.63,12.34 19.37,24.96l-77.69 302.97 123.51 0c16.79,0 26.11,19.63 15.49,32.64l-382.63 468.82c-3.9,4.8 -9.65,7.38 -15.5,7.38z"/>
 </g>
</svg>
